<svg width="18" height="18" viewBox="0 0 18 18" fill="none" xmlns="http://www.w3.org/2000/svg">
<path d="M9.5625 11.94H10.05C10.5375 11.94 10.9425 11.505 10.9425 10.98C10.9425 10.3275 10.71 10.2 10.3275 10.065L9.57 9.8025V11.94H9.5625Z" fill="#22B36B" fill-opacity="0.76"/>
<path d="M8.97755 1.425C4.83755 1.44 1.48505 4.8075 1.50005 8.9475C1.51505 13.0875 4.88255 16.44 9.02255 16.425C13.1625 16.41 16.5151 13.0425 16.5001 8.9025C16.4851 4.7625 13.1176 1.4175 8.97755 1.425ZM10.6951 9C11.2801 9.2025 12.0676 9.6375 12.0676 10.98C12.0676 12.135 11.16 13.065 10.05 13.065H9.56255V13.5C9.56255 13.8075 9.30755 14.0625 9.00005 14.0625C8.69255 14.0625 8.43755 13.8075 8.43755 13.5V13.065H8.16755C6.93755 13.065 5.94005 12.03 5.94005 10.755C5.94005 10.4475 6.19505 10.1925 6.50255 10.1925C6.81005 10.1925 7.06505 10.4475 7.06505 10.755C7.06505 11.4075 7.56005 11.94 8.16755 11.94H8.43755V9.405L7.30505 9C6.72005 8.7975 5.93255 8.3625 5.93255 7.02C5.93255 5.865 6.84005 4.935 7.95005 4.935H8.43755V4.5C8.43755 4.1925 8.69255 3.9375 9.00005 3.9375C9.30755 3.9375 9.56255 4.1925 9.56255 4.5V4.935H9.83255C11.0625 4.935 12.0601 5.97 12.0601 7.245C12.0601 7.5525 11.8051 7.8075 11.4976 7.8075C11.1901 7.8075 10.9351 7.5525 10.9351 7.245C10.9351 6.5925 10.44 6.06 9.83255 6.06H9.56255V8.595L10.6951 9Z" fill="#22B36B" fill-opacity="0.76"/>
<path d="M7.06494 7.0275C7.06494 7.68 7.29744 7.8075 7.67994 7.9425L8.43744 8.205V6.06H7.94994C7.46244 6.06 7.06494 6.495 7.06494 7.0275Z" fill="#22B36B" fill-opacity="0.76"/>
</svg>
